<svg xmlns="http://www.w3.org/2000/svg" viewBox="0 0 112 112"><path fill="currentColor" d="M43.5 66.2c-3.3-25.9 4-47.1 4-47.1C26.1 28.7 9.5 54 9.5 54c16-1.8 34 12.2 34 12.2zm-.9-42.5c.1-.1.2-.1.2-.2l1.1-.8c-.4.2-.7.5-1.1.8 0 .1-.1.2-.2.2-12.4 9.1-27.2 27.8-27.2 27.8 15.4.9 25.9 11.9 25.9 11.9C23.7 50 12.8 52.6 12.8 52.6 25.1 37 38.4 26.7 42.6 23.7zM75.7 69c-2.8-33.2 2-69 2-69-16.2 6.6-28 25.8-28 25.8-2.6 14-3.3 33.6-3.3 33.6 15.1.7 29.3 9.6 29.3 9.6zm-.2-66.4S59.1 15.3 51.4 26.1c0 0 8.5-14.5 24.1-23.5zm-2 63.6s-10.8-5.7-26-9.2c0 0 12.6.2 26 9.2zm25.6 5.5c-5.5-19.1 0-48.9 0-48.9-12.5 5.5-20.6 17-20.6 17-.4 7.8 0 22 0 22 13.2.7 20.6 9.9 20.6 9.9zm-2.4-45.6s-11.6 9-16.7 14.3c-.1.1 5.1-8 16.7-14.3zm0 42.1c-6.4-7-16.7-7.7-16.7-7.7 11.2-1.1 16.7 7.7 16.7 7.7zm-8.3 9.1S22.2 76.5.5 51.5c0 0 8.4 19.6 41.9 25.8 0 0-18.4-1.4-29-8.2l3.3 8.2s10 5.9 11.2 16.4c0 0 14.1-3.4 33.6 0s28.7 6.5 33.8 3.1l7.7-12.9s5.9-2.9 7-9c.1 0-10.2 2.4-21.6 2.4zM29.6 91.6l-1-3.1C56.5 85.2 80 95.3 80 95.3c-39.6-9.8-50.4-3.7-50.4-3.7zm-11.5 9.8s1.2-.9 3.7-2c2.4-1.1 6.1-2.4 10.6-3.2 2.3-.4 4.7-.8 7.3-1s5.4-.3 8.3-.2 5.8.3 8.8.7 6 .9 9 1.6l8.7 2.1 8.4 2c2.7.6 5.4 1.1 7.9 1.5 1.3.2 2.5.4 3.7.5 1.2.2 2.3.3 3.4.3 1.1.1 2.1.1 3.1.1s1.9-.1 2.8-.2a13.41 13.41 0 0 0 4.4-1.3c1.1-.6 2-1.2 2.6-1.6l.9-.6s-.3.3-.7.8c-.5.5-1.2 1.3-2.3 2.1s-2.6 1.6-4.4 2.1-4 .8-6.3.9c-1.2 0-2.4.1-3.6 0-1.2 0-2.5-.1-3.8-.2-2.6-.2-5.4-.6-8.2-1-2.8-.5-5.7-1-8.6-1.7-2.9-.6-5.8-1.4-8.7-2-2.9-.7-5.8-1.2-8.7-1.6-2.9-.5-5.7-.8-8.5-1s-5.4-.4-8-.4c-2.5 0-4.9.1-7.1.3-4.4.4-8.1 1-10.6 1.7-1.3.3-2.3.6-2.9.9-.8.3-1.2.4-1.2.4zM33 104l.7-.2 2-.4c.9-.2 2-.4 3.2-.5 1.2-.2 2.7-.3 4.2-.4l5-.1a53.96 53.96 0 0 1 5.6.3l5.9.7 6.1 1.1 6 1.4 5.7 1.5 5.3 1.3 4.8 1.1 7.2 1.5 2.8.4s-1 .2-2.8.2h-3.3c-1.3 0-2.7-.1-4.2-.2s-3.2-.3-5-.6c-1.8-.2-3.6-.5-5.5-.9l-2.9-.6-2.9-.7-5.9-1.4-5.9-1.2-5.7-1-2.8-.4-2.7-.3-4.9-.4-4.1-.2c-1.2 0-2.3-.1-3.2-.1h-2.1c-.4.1-.6.1-.6.1z"/></svg>