<svg viewbox="0 0 1028 600"><style>.A{fill:currentColor}.B{fill:#2f2e41}.C{opacity:.1}.D{fill:#f2f2f2}.E{fill:#ffb9b9}.F{fill:#a0616a}.G{fill:#d0cde1}</style><circle cx="332" cy="292" r="292" class="D"/><ellipse cx="514" cy="518.5" rx="514" ry="81.5" fill="#3f3d56"/><ellipse cx="501" cy="572" rx="165" ry="24" class="C"/><path d="M532 470.747c0 15.13-94.92 27.4-212 27.4s-212-12.27-212-27.4c.025-.955.362-1.875.96-2.62 53.48-10.77 123.9-19.36 204.93-24.76l6.1-.01c117.08 0 212 12.26 212 27.4z" class="C"/><path d="M416.472 334.975h41.685V469.56h-41.685zM279.506 271.85h41.685v197.7h-41.685zm-135.776 0h41.685v197.7H143.73zm67.888 0h41.685v134.584h-41.685zm135.775 0h41.685v39.303h-41.685z" class="A"/><path fill="#8a8b8c" d="M347.393 334.975h41.685V469.56h-41.685z"/><path class="A" d="M416.472 271.85h109.573v39.303H416.472z"/><path d="M927.417 516.336c0 48.737-67.934 33.663-151.113 33.663S626.2 565.073 626.2 516.336 694.125 457 777.304 457s150.113 10.6 150.113 59.337z" class="C"/><path d="M894.542 441.842l3.434 14.164a.89.89 0 0 1-.017.478l-15.576 48.673c-.15.465-.647.722-1.112.573-.332-.106-.57-.397-.61-.743l-2.155-18.96c-.014-.126-.001-.253.038-.374l14.297-43.876c.15-.465.65-.718 1.115-.567.29.095.512.335.585.633z" class="B"/><path d="M893.278 443.038l3.17 12.152-13.738 44.382-3.17-13.737z" class="D"/><path d="M824.064 509.083c.528 1.585 54.95-.528 55.477-1.057a11.46 11.46 0 0 0 1.162-2.113c.497-1.057.95-2.113.95-2.113l-2.113-17.108-53.892-1.913s-1.347 14.498-1.622 21.134a15.84 15.84 0 0 0 .037 3.17z" class="B"/><path d="M872.673 489.005l1.056 14.794h-23.776v-14.794zm-30.645 4.755l.142-.028-.67 6.368h-13.2v-6.34zm-17.964 15.323c.528 1.585 54.95-.528 55.477-1.057a11.46 11.46 0 0 0 1.162-2.113h-56.677c-.093 1.055-.08 2.117.038 3.17z" class="C"/><use xlink:href="#B" class="B"/><use xlink:href="#B" class="C"/><use xlink:href="#C" class="F"/><use xlink:href="#C" class="C"/><g class="F"><circle cx="760.661" cy="355.331" r="23.776"/><path d="M759.076 376.465s-7.925 13.737-9.5 21.134-23.776-14.794-23.776-14.794l-2.906-7.66s20.87-9.775 19.285-17.7 16.907 19.02 16.907 19.02z"/></g><path d="M752.736 386.504l11.624 22.72s-2.642 11.095-6.87 12.152-22.19-13.737-22.19-13.737l17.436-21.134z" class="G"/><path d="M763.303 417.677l21.663 28.53 51.78 38.57s37.513 7.925 29.06 13.737-32.758-5.284-32.758-5.284-52.307-28.003-63.403-39.627-31.7-31.173-31.7-31.173l25.36-4.754z" class="F"/><path d="M734.244 462.06l6.34 10.04 37.84-11.904a29.75 29.75 0 0 1 24.771 2.989c6.604 4.16 10.83 10.765 1.32 20.54-19.02 19.55-31.7 8.982-31.7 8.982s-63.93 30.116-74.498 15.322-11.095-22.19-11.095-22.19 40.682-25.362 47.023-23.777z" class="B"/><path d="M813.497 496.93s16.907 11.095-3.17 16.38-34.87-2.113-34.87-2.113-17.436 0-17.436-8.982 5.812-10.04 5.812-10.04l17.964 2.642c0 0 21.662-5.812 31.7 2.113z" class="G"/><path d="M780.166 349.35a17.75 17.75 0 0 0 4.982 1.785c1.787.32 3.594-.454 4.595-1.97.39-.88.568-1.836.522-2.795.064-2.9-.146-6.038-1.985-8.283-1.17-1.43-2.878-2.33-4.09-3.724-.814-1.044-1.507-2.178-2.067-3.378-2.356-4.424-5.843-8.676-10.7-9.95-2.05-.44-4.148-.6-6.24-.477l-12.206.172c-1.977-.064-3.954.15-5.872.632-3.93 1.188-6.79 4.492-9.41 7.65a47.83 47.83 0 0 0-5.396 7.448c-2.11 3.934-3.176 8.342-3.098 12.804a11.97 11.97 0 0 0 .439 3.388 18.8 18.8 0 0 0 1.332 2.925c2.29 4.496 3.648 10.112 1.07 14.45 4.478-1.83 8.91-4.228 11.863-8.058 1.32-1.714 2.358-3.72 4.12-4.977s4.63-1.367 5.76.48a5.18 5.18 0 0 1 .583 2.418c-.035 1.4.19 2.775.668 4.08a3.06 3.06 0 0 0 3.322 1.896c2.3-.648 2.08-4.18 3.852-5.782 1.346-1.218 3.422-.985 5.15-1.538 2.003-.762 3.595-2.33 4.387-4.32.655-1.468.645-5.3 1.884-6.105 1.55-.998 5.083.587 6.523 1.23z" class="B"/><g class="G"><path d="M720.996 372.638c1.07-.285 2.196-.283 3.264.008 3.392.91 10.995 3.32 12.625 6.99 2.113 4.755 9.5 12.152 9.5 12.152s10.04 10.04 7.925 16.907-10.04 14.794-10.04 14.794 2.113 32.758-8.454 41.212-14.794 2.642-14.794 10.567-32.758 32.758-39.098 17.436c0 0 3.17-28.53 2.113-38.57-1.04-9.893.485-71.623 36.948-81.495z"/><path d="M737.942 385.976s32.23 23.776 26.418 33.815c0 0-19.55 9.5-23.776 8.982s-20.606-19.02-24.833-20.606-6.34-30.117 22.19-22.19z"/></g><path d="M493.81 376.28c-5.013 1.693-9.554 5.652-10.58 10.843-.476 2.406-.184 4.907-.585 7.327-.93 5.612-5.334 9.897-9.396 13.878s-8.258 8.606-8.555 14.286c-.325 6.22 4.186 12.047 3.406 18.226-.907 7.18-8.49 11.83-10.364 18.82-1.252 4.667.282 9.694 2.805 13.815 4.81 7.852 13.028 13.183 21.78 16.04s18.075 3.46 27.282 3.556c11.21.117 23.383-.845 31.806-8.244 4.81-4.264 7.833-10.2 8.46-16.588.8-8.57-2.777-17.426-.3-25.673 1.553-5.2 5.447-9.93 4.866-15.316-.568-5.266-5.168-9-8.323-13.253-2.946-3.972-4.734-8.663-6.486-13.288l-5.995-15.824c-1.178-3.11-2.473-6.382-5.1-8.424-4.917-3.822-12.822-3.07-18.572-2.283-5.332.73-11.01.37-16.14 2.1z" class="B"/><use xlink:href="#D" class="E"/><use xlink:href="#D" class="C"/><circle cx="508.643" cy="414.736" r="21.26" class="E"/><path fill="#ff6584" d="M506.318 459.58s-25.604-1.872-26.09-19.54c0 0-9.122-1.057-11.78 1.6s-11.294 4.65-11.294 11.294 14.616 26.575 14.616 26.575 7.972 26.575 4.65 31.225-3.986 16.61-3.986 16.61 33.22-2.657 38.533 0 26.575 2.657 27.904 0-1.33-35.876-1.33-35.876 5.98-7.972 4.65-17.274l15.945-18.602s-5.98-17.938-15.28-17.938c0 0-12.623-3.322-12.955-1.66s6.31 20.264-23.586 23.586z"/><path d="M446.525 518.045s5.98 9.3 21.26 11.294 17.938-3.322 16.6-4.65-17.274-7.308-17.274-7.308l-9.3-7.308-11.294 7.973zm108.955-7.972l-17.274 9.966s-22.6-1.33-13.952 5.315 24.582 3.986 24.582 3.986l15.28-7.308-8.637-11.96z" class="E"/><use xlink:href="#E" class="B"/><use xlink:href="#E" opacity=".05"/><use xlink:href="#F" class="B"/><use xlink:href="#F" class="C"/><use xlink:href="#G" class="B"/><use xlink:href="#G" class="C"/><path d="M442.538 552.593s12.623 15.945 27.24 19.93 22.59-1.33 22.59-1.33l-4.65-18.602-1.993-11.96-8.637-5.98-17.274-7.972-20.595-6.644s-8.637-1.33-8.637 0 7.972 21.26 7.972 21.26l3.987 11.294z" class="B"/><path d="M457.82 561.23s2.657 19.267 5.98 20.595 13.287-1.33 15.945-2.657 11.69-7.46 11.69-7.46-31.622-11.808-33.615-10.48z" class="D"/><path d="M518.277 563.223l12.623 1.993-1.33 15.28-17.607-4.276z" class="E"/><path d="M526.186 567.475s-5.916 7.042.063 11.028l3.986 3.322s13.287 2.657 14.616 3.986 6.644-1.993 6.644-1.993.664-19.93 0-21.26-8.637-2.657-9.3-1.33-8.637 3.322-13.287 1.993l-2.72 4.253z" class="D"/><path d="M473.1 531.997s-46.506-27.24-53.814-17.274-15.28 23.917 5.98 34.547 87.697 32.554 87.697 32.554 9.966-15.28 9.966-19.267c0 0-35.212-15.945-41.19-17.274s-29.897-16.61-33.22-17.938-7.972-5.315-7.972-5.315l32.554 9.967z" class="B"/><path d="M459.812 449.615l-2.657 1.993s-5.98 15.28-6.644 23.917-8.637 35.212-7.972 38.533 1.33 5.98 5.315 9.3c0 0 5.315-11.96 14.616-9.966l11.294-41.2-13.952-22.587zm93.012 0l5.315 5.98s3.322 7.972 3.322 9.966 6.644 31.225 7.308 32.554 3.322 17.938 0 21.924-9.3 6.644-9.3 6.644 3.986-13.952-8.637-14.616l1.33-5.315-11.96-39.862 12.623-17.274z" fill="#ff6584"/><path fill="#3f3d56" d="M461.14 495.356v34.995c0 4.598 3.69 8.344 8.29 8.413l73.185 1.084c4.57.068 8.356-3.523 8.532-8.09l1.346-35c.18-4.643-3.44-8.552-8.084-8.73a6.74 6.74 0 0 0-.201-.005l-74.53-1.08c-4.646-.067-8.467 3.644-8.535 8.29-.001.04-.001.08-.001.12z"/><ellipse cx="509.89" cy="401.732" rx="22.884" ry="12.322" class="B"/><circle cx="505.986" cy="513.727" r="5.315" class="D"/><defs ><path id="B" d="M740.055 453.605h14.794l36.457-14.266s25.89-10.567 23.776 9.5-5.812 47.024-5.812 47.024-11.624-5.284-17.964-3.698-2.113-32.23-2.113-32.23-51.78 24.833-56.534 21.663-5.812-25.36-5.812-25.36l13.208-2.642z"/><path id="C" d="M763.363 407.276L781.267 433l41.74 34.87s38.57 8.982 33.286 15.322-37.513-6.34-37.513-6.34-48.08-34.87-49.665-37.513-19.02-27.474-19.02-27.474l13.27-4.59z"/><path id="D" d="M495.688 422.376s2.657 8.637-17.274 18.602 1.993 20.595 1.993 20.595l23.253 5.315s23.917-3.322 26.575-7.308 7.308-17.274 5.98-19.267a31.03 31.03 0 0 0-3.322-3.986s-15.945-2.657-15.28-9.966-21.923-3.985-21.923-3.985z"/><path id="E" d="M469.113 527.347s-15.945 39.198 3.322 45.177 72.416 4.65 84.375-3.322 15.28-18.602 13.287-21.924-15.28-12.623-24.582-13.287l-76.402-6.644z"/><path id="F" d="M544.378 529.782s56.28-20.373 55.617 4.208-35.876 31.225-35.876 31.225l-10.63 1.33-58.465 1.993s1.993-10.63-2.657-11.96c0 0 15.28-3.986 15.945-4.65s38.533-13.952 41.19-14.616 10.63-5.98 16.61-5.315c0 0 6.644-5.315 13.952-3.986l-20.595 1.33-15.09.443z"/><path id="G" d="M534.434 533.08l7.096 16.2L584.714 534l3.322-8.636-11.295-1.994-22.706 3.987-9.848 2.657z"/></defs></svg>